# xmcd
#
# Track frame offsets: 
#        150
#        14482
#        29057
#        42770
#        56120
#        70482
#        85520
#        100182
#        114342
#        128437
#        142122
#        156945
#        171382
#        184472
#        199382
#        213207
#        227682
#        240897
#        254720
#        267607
#        280425
#
# Disc length: 3927 seconds
#
# Revision: 3
# Processed by: cddbd v1.4PL0 Copyright (c) Steve Scherf et al.
# Submitted via: ExactAudioCopy v0.95a3
#
DISCID=3f0f5515
DTITLE=Blind Willie McTell - The Definitive Blind Willie McTell [disc 
DTITLE=1]
DYEAR=1994
DGENRE=Blues
TTITLE0=Atlanta Strut
TTITLE1=Travelin' Blues
TTITLE2=Come On Around To My House Mama
TTITLE3=Kind Mama
TTITLE4=Talking To Myself
TTITLE5=Razor Ball
TTITLE6=Southern Can Is Mine
TTITLE7=Broke Down Engine Blues
TTITLE8=Stomp Down Rider
TTITLE9=Scarey Day Blues
TTITLE10=Rough Alley Blues
TTITLE11=Experience Blues
TTITLE12=Painful Blues
TTITLE13=Low Rider's Blues
TTITLE14=Georgia Rag
TTITLE15=Low Down Blues
TTITLE16=Warm It Up To Me
TTITLE17=It's Your Time To Worry
TTITLE18=It's A Good Little Thing
TTITLE19=You Was Born To Die
TTITLE20=Dirty Mistreater
EXTD=ID3G:   0
EXTT0=
EXTT1=
EXTT2=
EXTT3=
EXTT4=
EXTT5=
EXTT6=
EXTT7=
EXTT8=
EXTT9=
EXTT10=
EXTT11=
EXTT12=
EXTT13=
EXTT14=
EXTT15=
EXTT16=
EXTT17=
EXTT18=
EXTT19=
EXTT20=
PLAYORDER=
